<svg xmlns="http://www.w3.org/2000/svg" xmlns:xlink="http://www.w3.org/1999/xlink" width="1200" zoomAndPan="magnify" viewBox="0 0 900 187.499995" height="250" preserveAspectRatio="xMidYMid meet" version="1.0"><defs><clipPath id="0d71b3c95e"><path d="M 28.277344 107 L 147 107 L 147 166.804688 L 28.277344 166.804688 Z M 28.277344 107 " clip-rule="nonzero"/></clipPath><clipPath id="fe53b830a9"><path d="M 28.277344 48 L 147 48 L 147 108 L 28.277344 108 Z M 28.277344 48 " clip-rule="nonzero"/></clipPath><clipPath id="6773f848c1"><path d="M 28.277344 107 L 88 107 L 88 166.804688 L 28.277344 166.804688 Z M 28.277344 107 " clip-rule="nonzero"/></clipPath><clipPath id="27cb578c44"><path d="M 117 18.699219 L 147 18.699219 L 147 78 L 117 78 Z M 117 18.699219 " clip-rule="nonzero"/></clipPath><clipPath id="d300dcddf4"><path d="M 87 18.699219 L 118 18.699219 L 118 78 L 87 78 Z M 87 18.699219 " clip-rule="nonzero"/></clipPath><clipPath id="369c6456bf"><path d="M 117 48 L 176.382812 48 L 176.382812 108 L 117 108 Z M 117 48 " clip-rule="nonzero"/></clipPath><clipPath id="f32b73a186"><path d="M 28.277344 145 L 50 145 L 50 166.804688 L 28.277344 166.804688 Z M 28.277344 145 " clip-rule="nonzero"/></clipPath><clipPath id="4f73ce7224"><path d="M 28.277344 18.699219 L 176.382812 18.699219 L 176.382812 166.804688 L 28.277344 166.804688 Z M 28.277344 18.699219 " clip-rule="nonzero"/></clipPath></defs><path fill="#ffffff" d="M 239.507812 60.042969 L 208.363281 60.042969 L 208.363281 39.035156 L 296.957031 39.035156 L 296.957031 60.042969 L 265.652344 60.042969 L 265.652344 149.988281 L 239.507812 149.988281 Z M 331.863281 150.007812 L 306.007812 150.007812 L 306.007812 39.035156 L 353.039062 39.035156 C 381.015625 39.035156 390.839844 52.949219 390.839844 71.082031 C 390.839844 81.972656 387.816406 96.175781 370.425781 102.671875 L 393.554688 149.988281 L 366.03125 149.988281 L 345.761719 106.289062 L 331.847656 106.289062 L 331.847656 150.007812 Z M 343.5 87.109375 C 356.65625 87.109375 364.367188 83.945312 364.367188 72.597656 C 364.367188 63.082031 359.226562 59.445312 346.667969 59.445312 L 331.847656 59.445312 L 331.847656 87.109375 Z M 470.351562 103.59375 L 430.429688 103.59375 L 430.429688 128.835938 L 477.914062 128.835938 L 477.914062 150.007812 L 404.285156 150.007812 L 404.285156 39.035156 L 475.34375 39.035156 L 475.34375 60.042969 L 430.429688 60.042969 L 430.429688 83.023438 L 470.351562 83.023438 Z M 515.839844 128.835938 L 558.023438 128.835938 L 558.023438 150.007812 L 489.675781 150.007812 L 489.675781 39.035156 L 515.824219 39.035156 Z M 628.035156 73.648438 C 626.820312 62.917969 621.230469 56.875 610.5 56.875 C 601.433594 56.875 596.296875 60.203125 596.296875 68.367188 C 596.296875 78.191406 605.8125 80.613281 617.304688 82.878906 C 633.933594 86.351562 654.796875 89.988281 654.796875 115.085938 C 654.796875 138.96875 636.808594 151.816406 611.261719 151.816406 C 582.832031 151.816406 567.722656 141.085938 563.941406 117.945312 L 591.011719 114.019531 C 592.820312 123.535156 597.363281 131.246094 612.019531 131.246094 C 623.054688 131.246094 628.648438 126.414062 628.648438 118.398438 C 628.648438 107.8125 617.304688 106.761719 604.003906 104.03125 C 587.515625 100.703125 568.171875 96.015625 568.171875 71.679688 C 568.171875 50.21875 585.566406 36.898438 612.328125 36.898438 C 636.214844 36.898438 650.273438 47.628906 654.363281 69.5625 Z M 664.007812 94.964844 C 664.007812 58.523438 684.113281 37.0625 717.675781 37.0625 C 751.082031 37.0625 767.566406 58.070312 767.566406 93.300781 C 767.566406 130.339844 750.035156 151.816406 715.398438 151.816406 C 680.765625 151.816406 664.007812 130.644531 664.007812 94.964844 Z M 740.0625 93.609375 C 740.0625 68.816406 732.207031 57.925781 716.9375 57.925781 C 701.664062 57.925781 691.695312 68.511719 691.695312 94.367188 C 691.695312 119.464844 699.855469 131.40625 715.726562 131.40625 C 731.59375 131.40625 740.0625 120.367188 740.0625 93.609375 Z M 845.089844 150.007812 L 804.121094 76.980469 L 803.523438 76.980469 L 803.523438 150.007812 L 779.1875 150.007812 L 779.1875 39.035156 L 809.28125 39.035156 L 849.339844 114.324219 L 849.9375 114.324219 L 849.9375 39.035156 L 874.273438 39.035156 L 874.273438 150.007812 Z M 845.089844 150.007812 " fill-opacity="1" fill-rule="nonzero"/><g clip-path="url(#0d71b3c95e)"><path fill="#6e3799" d="M 87.519531 166.804688 L 146.761719 107.5625 L 28.277344 107.5625 Z M 87.519531 166.804688 " fill-opacity="1" fill-rule="nonzero"/></g><g clip-path="url(#fe53b830a9)"><path fill="#77bf7f" d="M 87.519531 48.320312 L 146.761719 107.5625 L 28.277344 107.5625 Z M 87.519531 48.320312 " fill-opacity="1" fill-rule="nonzero"/></g><g clip-path="url(#6773f848c1)"><path fill="#76ada8" d="M 28.277344 166.804688 L 87.519531 166.804688 L 28.277344 107.5625 Z M 28.277344 166.804688 " fill-opacity="1" fill-rule="nonzero"/></g><g clip-path="url(#27cb578c44)"><path fill="#e57b4c" d="M 146.761719 48.320312 L 117.140625 18.699219 L 117.140625 77.941406 Z M 146.761719 48.320312 " fill-opacity="1" fill-rule="nonzero"/></g><g clip-path="url(#d300dcddf4)"><path fill="#ffcc83" d="M 87.519531 48.320312 L 117.140625 77.941406 L 117.140625 18.699219 Z M 87.519531 48.320312 " fill-opacity="1" fill-rule="nonzero"/></g><g clip-path="url(#369c6456bf)"><path fill="#ffcac5" d="M 117.136719 77.941406 L 146.757812 48.320312 L 176.378906 77.941406 L 146.757812 107.5625 Z M 117.136719 77.941406 " fill-opacity="1" fill-rule="nonzero"/></g><g clip-path="url(#f32b73a186)"><path fill="#142b3d" d="M 28.277344 166.804688 L 49.328125 166.804688 L 28.277344 145.753906 Z M 28.277344 166.804688 " fill-opacity="1" fill-rule="nonzero"/></g><g clip-path="url(#4f73ce7224)"><path fill="#ffffff" d="M 117.140625 21.316406 L 173.761719 77.941406 L 86.75 164.953125 L 30.128906 164.953125 L 30.128906 108.328125 L 117.140625 21.316406 M 117.140625 18.699219 L 28.277344 107.5625 L 28.277344 166.804688 L 87.519531 166.804688 L 176.382812 77.941406 Z M 117.140625 18.699219 " fill-opacity="1" fill-rule="nonzero"/></g></svg>